<mxfile host="app.diagrams.net" modified="2023-04-06T13:26:01.013Z" agent="5.0 (Macintosh)" etag="yqZ6sirwiKRXbmisH62E" version="18.1.1" type="github">
  <diagram id="LrehfFlCL_miOeviWvcQ" name="Page-1">
    <mxGraphModel dx="1426" dy="820" grid="1" gridSize="10" guides="1" tooltips="1" connect="1" arrows="1" fold="1" page="1" pageScale="1" pageWidth="1654" pageHeight="1169" math="0" shadow="0">
      <root>
        <mxCell id="0" />
        <mxCell id="1" parent="0" />
        <mxCell id="5jSKp_TQGfXwlnwANQmT-35" value="" style="rounded=0;whiteSpace=wrap;html=1;fontSize=12;" vertex="1" parent="1">
          <mxGeometry x="102" y="200" width="230" height="240" as="geometry" />
        </mxCell>
        <mxCell id="5jSKp_TQGfXwlnwANQmT-47" style="edgeStyle=orthogonalEdgeStyle;rounded=0;orthogonalLoop=1;jettySize=auto;html=1;fontSize=12;entryX=0;entryY=0.25;entryDx=0;entryDy=0;" edge="1" parent="1" source="5jSKp_TQGfXwlnwANQmT-34" target="5jSKp_TQGfXwlnwANQmT-49">
          <mxGeometry relative="1" as="geometry">
            <mxPoint x="1072" y="370" as="targetPoint" />
          </mxGeometry>
        </mxCell>
        <mxCell id="5jSKp_TQGfXwlnwANQmT-34" value="" style="rounded=0;whiteSpace=wrap;html=1;fontSize=12;" vertex="1" parent="1">
          <mxGeometry x="652" y="200" width="230" height="340" as="geometry" />
        </mxCell>
        <mxCell id="5jSKp_TQGfXwlnwANQmT-19" style="edgeStyle=orthogonalEdgeStyle;rounded=0;orthogonalLoop=1;jettySize=auto;html=1;fontSize=12;" edge="1" parent="1" source="5jSKp_TQGfXwlnwANQmT-6" target="5jSKp_TQGfXwlnwANQmT-20">
          <mxGeometry relative="1" as="geometry">
            <mxPoint x="302" y="690" as="targetPoint" />
          </mxGeometry>
        </mxCell>
        <mxCell id="5jSKp_TQGfXwlnwANQmT-6" value="Trending Users" style="swimlane;fontStyle=0;childLayout=stackLayout;horizontal=1;startSize=30;horizontalStack=0;resizeParent=1;resizeParentMax=0;resizeLast=0;collapsible=1;marginBottom=0;fontSize=12;" vertex="1" parent="1">
          <mxGeometry x="102" y="520" width="400" height="130" as="geometry" />
        </mxCell>
        <mxCell id="5jSKp_TQGfXwlnwANQmT-7" value="High Follower/Following ratio (is followed more than being follower)" style="text;strokeColor=none;fillColor=none;align=left;verticalAlign=middle;spacingLeft=4;spacingRight=4;overflow=hidden;points=[[0,0.5],[1,0.5]];portConstraint=eastwest;rotatable=0;fontSize=12;" vertex="1" parent="5jSKp_TQGfXwlnwANQmT-6">
          <mxGeometry y="30" width="400" height="50" as="geometry" />
        </mxCell>
        <mxCell id="5jSKp_TQGfXwlnwANQmT-8" value="High value Posts (valued by community: likes, interaction by comments)" style="text;strokeColor=none;fillColor=none;align=left;verticalAlign=middle;spacingLeft=4;spacingRight=4;overflow=hidden;points=[[0,0.5],[1,0.5]];portConstraint=eastwest;rotatable=0;fontSize=12;" vertex="1" parent="5jSKp_TQGfXwlnwANQmT-6">
          <mxGeometry y="80" width="400" height="50" as="geometry" />
        </mxCell>
        <mxCell id="5jSKp_TQGfXwlnwANQmT-10" value="&lt;div&gt;&lt;b&gt;&lt;font style=&quot;font-size: 20px;&quot;&gt;NEAR Recommender System&lt;br&gt;&lt;/font&gt;&lt;/b&gt;&lt;/div&gt;&lt;div&gt;&lt;br&gt;&lt;/div&gt;&lt;div&gt;Starting with User Recommendation&lt;/div&gt;&lt;div&gt;&lt;br&gt;&lt;/div&gt;&lt;div&gt;Follow up system may include:&lt;/div&gt;&lt;div&gt;- Widgets (Apps),&lt;/div&gt;&lt;div&gt;- NFTs&lt;br&gt;&lt;/div&gt;" style="text;html=1;strokeColor=none;fillColor=none;spacing=5;spacingTop=-20;whiteSpace=wrap;overflow=hidden;rounded=0;fontSize=12;" vertex="1" parent="1">
          <mxGeometry x="60" y="40" width="300" height="120" as="geometry" />
        </mxCell>
        <mxCell id="5jSKp_TQGfXwlnwANQmT-11" value="&lt;h1&gt;Onboarding&lt;/h1&gt;&lt;p&gt;Cold recommendations depend on given User data:&lt;/p&gt;&lt;p&gt;- username &lt;br&gt;&lt;/p&gt;&lt;p&gt;- tags&lt;/p&gt;&lt;p&gt;- description&lt;/p&gt;&lt;p&gt;&lt;br&gt;&lt;/p&gt;The sparser the data given, the more generic the recommendation" style="text;html=1;strokeColor=none;fillColor=none;spacing=5;spacingTop=-20;whiteSpace=wrap;overflow=hidden;rounded=0;fontSize=12;" vertex="1" parent="1">
          <mxGeometry x="102" y="200" width="220" height="240" as="geometry" />
        </mxCell>
        <mxCell id="5jSKp_TQGfXwlnwANQmT-12" value="" style="endArrow=classic;html=1;rounded=0;fontSize=12;entryX=0.5;entryY=0;entryDx=0;entryDy=0;exitX=0.5;exitY=1;exitDx=0;exitDy=0;" edge="1" parent="1" source="5jSKp_TQGfXwlnwANQmT-11" target="5jSKp_TQGfXwlnwANQmT-6">
          <mxGeometry width="50" height="50" relative="1" as="geometry">
            <mxPoint x="402" y="420" as="sourcePoint" />
            <mxPoint x="452" y="370" as="targetPoint" />
          </mxGeometry>
        </mxCell>
        <mxCell id="5jSKp_TQGfXwlnwANQmT-20" value="Trending Users by tags" style="swimlane;fontStyle=0;childLayout=stackLayout;horizontal=1;startSize=30;horizontalStack=0;resizeParent=1;resizeParentMax=0;resizeLast=0;collapsible=1;marginBottom=0;fontSize=12;" vertex="1" parent="1">
          <mxGeometry x="102" y="690" width="400" height="140" as="geometry" />
        </mxCell>
        <mxCell id="5jSKp_TQGfXwlnwANQmT-21" value="if tags are given and intersecting, &#xa;&#xa;we can recommend trending Users to newcomers" style="text;strokeColor=none;fillColor=none;align=left;verticalAlign=middle;spacingLeft=4;spacingRight=4;overflow=hidden;points=[[0,0.5],[1,0.5]];portConstraint=eastwest;rotatable=0;fontSize=12;" vertex="1" parent="5jSKp_TQGfXwlnwANQmT-20">
          <mxGeometry y="30" width="400" height="110" as="geometry" />
        </mxCell>
        <mxCell id="5jSKp_TQGfXwlnwANQmT-26" value="Trending Users by topics" style="swimlane;fontStyle=0;childLayout=stackLayout;horizontal=1;startSize=30;horizontalStack=0;resizeParent=1;resizeParentMax=0;resizeLast=0;collapsible=1;marginBottom=0;fontSize=12;" vertex="1" parent="1">
          <mxGeometry x="562" y="690" width="400" height="140" as="geometry" />
        </mxCell>
        <mxCell id="5jSKp_TQGfXwlnwANQmT-27" value="if history of interaction is given, &#xa;&#xa;we can recommend trending Users to active Users by tags&#xa;and topic of interest" style="text;strokeColor=none;fillColor=none;align=left;verticalAlign=middle;spacingLeft=4;spacingRight=4;overflow=hidden;points=[[0,0.5],[1,0.5]];portConstraint=eastwest;rotatable=0;fontSize=12;" vertex="1" parent="5jSKp_TQGfXwlnwANQmT-26">
          <mxGeometry y="30" width="400" height="110" as="geometry" />
        </mxCell>
        <mxCell id="5jSKp_TQGfXwlnwANQmT-29" style="edgeStyle=orthogonalEdgeStyle;rounded=0;orthogonalLoop=1;jettySize=auto;html=1;fontSize=12;" edge="1" parent="1" source="5jSKp_TQGfXwlnwANQmT-21" target="5jSKp_TQGfXwlnwANQmT-27">
          <mxGeometry relative="1" as="geometry" />
        </mxCell>
        <mxCell id="5jSKp_TQGfXwlnwANQmT-31" style="edgeStyle=orthogonalEdgeStyle;rounded=0;orthogonalLoop=1;jettySize=auto;html=1;fontSize=12;" edge="1" parent="1" source="5jSKp_TQGfXwlnwANQmT-30" target="5jSKp_TQGfXwlnwANQmT-26">
          <mxGeometry relative="1" as="geometry" />
        </mxCell>
        <mxCell id="5jSKp_TQGfXwlnwANQmT-30" value="&lt;h1&gt;Active Users&lt;br&gt;&lt;/h1&gt;&lt;p&gt;Activity based recommendations depend on given User data and their interaction:&lt;/p&gt;&lt;p&gt;- username &lt;br&gt;&lt;/p&gt;&lt;p&gt;- tags&lt;/p&gt;&lt;p&gt;- description&lt;/p&gt;&lt;p&gt;- posts, including image recognition (topic)&lt;br&gt;&lt;/p&gt;&lt;p&gt;- comments&lt;/p&gt;&lt;p&gt;- NFT collection (topics)&lt;/p&gt;&lt;p&gt;&lt;br&gt;&lt;/p&gt;The sparser the data given, the more generic the recommendation" style="text;html=1;strokeColor=none;fillColor=none;spacing=5;spacingTop=-20;whiteSpace=wrap;overflow=hidden;rounded=0;fontSize=12;" vertex="1" parent="1">
          <mxGeometry x="652" y="200" width="220" height="340" as="geometry" />
        </mxCell>
        <mxCell id="5jSKp_TQGfXwlnwANQmT-36" value="Metrics" style="swimlane;fontStyle=0;childLayout=stackLayout;horizontal=1;startSize=30;horizontalStack=0;resizeParent=1;resizeParentMax=0;resizeLast=0;collapsible=1;marginBottom=0;fontSize=12;" vertex="1" parent="1">
          <mxGeometry x="242" y="940" width="140" height="90" as="geometry" />
        </mxCell>
        <mxCell id="5jSKp_TQGfXwlnwANQmT-37" value="Conversion" style="text;strokeColor=none;fillColor=none;align=left;verticalAlign=middle;spacingLeft=4;spacingRight=4;overflow=hidden;points=[[0,0.5],[1,0.5]];portConstraint=eastwest;rotatable=0;fontSize=12;" vertex="1" parent="5jSKp_TQGfXwlnwANQmT-36">
          <mxGeometry y="30" width="140" height="30" as="geometry" />
        </mxCell>
        <mxCell id="5jSKp_TQGfXwlnwANQmT-45" value="Score (Similarity)" style="text;strokeColor=none;fillColor=none;align=left;verticalAlign=middle;spacingLeft=4;spacingRight=4;overflow=hidden;points=[[0,0.5],[1,0.5]];portConstraint=eastwest;rotatable=0;fontSize=12;" vertex="1" parent="5jSKp_TQGfXwlnwANQmT-36">
          <mxGeometry y="60" width="140" height="30" as="geometry" />
        </mxCell>
        <mxCell id="5jSKp_TQGfXwlnwANQmT-40" style="edgeStyle=orthogonalEdgeStyle;rounded=0;orthogonalLoop=1;jettySize=auto;html=1;fontSize=12;" edge="1" parent="1" source="5jSKp_TQGfXwlnwANQmT-37">
          <mxGeometry relative="1" as="geometry">
            <mxPoint x="472" y="985" as="targetPoint" />
          </mxGeometry>
        </mxCell>
        <mxCell id="5jSKp_TQGfXwlnwANQmT-41" value="GAN system" style="swimlane;fontStyle=0;childLayout=stackLayout;horizontal=1;startSize=30;horizontalStack=0;resizeParent=1;resizeParentMax=0;resizeLast=0;collapsible=1;marginBottom=0;fontSize=12;" vertex="1" parent="1">
          <mxGeometry x="472" y="970" width="260" height="80" as="geometry" />
        </mxCell>
        <mxCell id="5jSKp_TQGfXwlnwANQmT-42" value="Competing agents to rate the conversion of &#xa;&#xa;recommended items/Users&#xa;" style="text;strokeColor=none;fillColor=none;align=left;verticalAlign=middle;spacingLeft=4;spacingRight=4;overflow=hidden;points=[[0,0.5],[1,0.5]];portConstraint=eastwest;rotatable=0;fontSize=12;" vertex="1" parent="5jSKp_TQGfXwlnwANQmT-41">
          <mxGeometry y="30" width="260" height="50" as="geometry" />
        </mxCell>
        <mxCell id="5jSKp_TQGfXwlnwANQmT-46" style="edgeStyle=orthogonalEdgeStyle;rounded=0;orthogonalLoop=1;jettySize=auto;html=1;entryX=0;entryY=0.318;entryDx=0;entryDy=0;entryPerimeter=0;fontSize=12;" edge="1" parent="1" source="5jSKp_TQGfXwlnwANQmT-45" target="5jSKp_TQGfXwlnwANQmT-21">
          <mxGeometry relative="1" as="geometry" />
        </mxCell>
        <mxCell id="5jSKp_TQGfXwlnwANQmT-49" value="Methodologies" style="swimlane;fontStyle=1;childLayout=stackLayout;horizontal=1;startSize=30;horizontalStack=0;resizeParent=1;resizeParentMax=0;resizeLast=0;collapsible=1;marginBottom=0;fontSize=12;" vertex="1" parent="1">
          <mxGeometry x="1002" y="340" width="340" height="120" as="geometry" />
        </mxCell>
        <mxCell id="5jSKp_TQGfXwlnwANQmT-50" value="Image Recognition for image posts/ NFTs in collection" style="text;strokeColor=none;fillColor=none;align=left;verticalAlign=middle;spacingLeft=4;spacingRight=4;overflow=hidden;points=[[0,0.5],[1,0.5]];portConstraint=eastwest;rotatable=0;fontSize=12;" vertex="1" parent="5jSKp_TQGfXwlnwANQmT-49">
          <mxGeometry y="30" width="340" height="30" as="geometry" />
        </mxCell>
        <mxCell id="5jSKp_TQGfXwlnwANQmT-51" value="NLP Sentiment/Topic Analysis for written posts" style="text;strokeColor=none;fillColor=none;align=left;verticalAlign=middle;spacingLeft=4;spacingRight=4;overflow=hidden;points=[[0,0.5],[1,0.5]];portConstraint=eastwest;rotatable=0;fontSize=12;" vertex="1" parent="5jSKp_TQGfXwlnwANQmT-49">
          <mxGeometry y="60" width="340" height="30" as="geometry" />
        </mxCell>
        <mxCell id="5jSKp_TQGfXwlnwANQmT-52" value="Widget classification/Games for widgets" style="text;strokeColor=none;fillColor=none;align=left;verticalAlign=middle;spacingLeft=4;spacingRight=4;overflow=hidden;points=[[0,0.5],[1,0.5]];portConstraint=eastwest;rotatable=0;fontSize=12;" vertex="1" parent="5jSKp_TQGfXwlnwANQmT-49">
          <mxGeometry y="90" width="340" height="30" as="geometry" />
        </mxCell>
        <mxCell id="5jSKp_TQGfXwlnwANQmT-54" value="Topic Modelling" style="swimlane;fontStyle=0;childLayout=stackLayout;horizontal=1;startSize=30;horizontalStack=0;resizeParent=1;resizeParentMax=0;resizeLast=0;collapsible=1;marginBottom=0;fontSize=12;" vertex="1" parent="1">
          <mxGeometry x="1432" y="510" width="140" height="120" as="geometry" />
        </mxCell>
        <mxCell id="5jSKp_TQGfXwlnwANQmT-55" value="Item 1" style="text;strokeColor=none;fillColor=none;align=left;verticalAlign=middle;spacingLeft=4;spacingRight=4;overflow=hidden;points=[[0,0.5],[1,0.5]];portConstraint=eastwest;rotatable=0;fontSize=12;" vertex="1" parent="5jSKp_TQGfXwlnwANQmT-54">
          <mxGeometry y="30" width="140" height="30" as="geometry" />
        </mxCell>
        <mxCell id="5jSKp_TQGfXwlnwANQmT-56" value="Item 2" style="text;strokeColor=none;fillColor=none;align=left;verticalAlign=middle;spacingLeft=4;spacingRight=4;overflow=hidden;points=[[0,0.5],[1,0.5]];portConstraint=eastwest;rotatable=0;fontSize=12;" vertex="1" parent="5jSKp_TQGfXwlnwANQmT-54">
          <mxGeometry y="60" width="140" height="30" as="geometry" />
        </mxCell>
        <mxCell id="5jSKp_TQGfXwlnwANQmT-57" value="Item 3" style="text;strokeColor=none;fillColor=none;align=left;verticalAlign=middle;spacingLeft=4;spacingRight=4;overflow=hidden;points=[[0,0.5],[1,0.5]];portConstraint=eastwest;rotatable=0;fontSize=12;" vertex="1" parent="5jSKp_TQGfXwlnwANQmT-54">
          <mxGeometry y="90" width="140" height="30" as="geometry" />
        </mxCell>
        <mxCell id="5jSKp_TQGfXwlnwANQmT-59" style="edgeStyle=orthogonalEdgeStyle;rounded=0;orthogonalLoop=1;jettySize=auto;html=1;fontSize=12;" edge="1" parent="1" source="5jSKp_TQGfXwlnwANQmT-50" target="5jSKp_TQGfXwlnwANQmT-54">
          <mxGeometry relative="1" as="geometry" />
        </mxCell>
        <mxCell id="5jSKp_TQGfXwlnwANQmT-60" style="edgeStyle=orthogonalEdgeStyle;rounded=0;orthogonalLoop=1;jettySize=auto;html=1;entryX=0.5;entryY=0;entryDx=0;entryDy=0;fontSize=12;" edge="1" parent="1" source="5jSKp_TQGfXwlnwANQmT-51" target="5jSKp_TQGfXwlnwANQmT-54">
          <mxGeometry relative="1" as="geometry" />
        </mxCell>
        <mxCell id="5jSKp_TQGfXwlnwANQmT-61" style="edgeStyle=orthogonalEdgeStyle;rounded=0;orthogonalLoop=1;jettySize=auto;html=1;entryX=0.5;entryY=0;entryDx=0;entryDy=0;fontSize=12;" edge="1" parent="1" source="5jSKp_TQGfXwlnwANQmT-52" target="5jSKp_TQGfXwlnwANQmT-54">
          <mxGeometry relative="1" as="geometry" />
        </mxCell>
        <mxCell id="5jSKp_TQGfXwlnwANQmT-63" value="" style="ellipse;whiteSpace=wrap;html=1;aspect=fixed;fontSize=12;fillColor=#99FF33;strokeColor=none;sketch=1;" vertex="1" parent="1">
          <mxGeometry x="1204.6171428571429" y="790" width="170" height="170" as="geometry" />
        </mxCell>
        <mxCell id="5jSKp_TQGfXwlnwANQmT-64" value="" style="ellipse;whiteSpace=wrap;html=1;aspect=fixed;fontSize=12;fillColor=#FF6666;strokeColor=none;sketch=1;" vertex="1" parent="1">
          <mxGeometry x="1100" y="790" width="170" height="170" as="geometry" />
        </mxCell>
        <mxCell id="5jSKp_TQGfXwlnwANQmT-68" style="edgeStyle=orthogonalEdgeStyle;rounded=0;orthogonalLoop=1;jettySize=auto;html=1;exitX=0;exitY=0.5;exitDx=0;exitDy=0;entryX=0.824;entryY=0.529;entryDx=0;entryDy=0;entryPerimeter=0;fontSize=12;" edge="1" parent="1" source="5jSKp_TQGfXwlnwANQmT-55" target="5jSKp_TQGfXwlnwANQmT-64">
          <mxGeometry relative="1" as="geometry" />
        </mxCell>
      </root>
    </mxGraphModel>
  </diagram>
</mxfile>
